<svg xmlns="http://www.w3.org/2000/svg" width="58" height="20" viewBox="0 0 58 20" class="PaymentLogo variant-- "><title>FPX</title><g id="V6" fill="none" fill-rule="evenodd"><g id="Checkout-v5" transform="translate(-343 -3326)"><g id="Group" transform="translate(160)" stroke="var(--paymentLogoColor, #427FBC)" stroke-linecap="square"><g id="Column-Guides"><path id="Right" stroke-opacity="0.1" d="M1080.5 0v9423"></path><path id="Mid-Right" stroke-opacity="0.15" stroke-dasharray="3 5" d="M810.5 0v9423"></path><path id="Center" stroke-opacity="0.15" stroke-dasharray="3 5" d="M540.5 0v9423"></path><path id="Mid-Left" stroke-opacity="0.15" stroke-dasharray="3 5" d="M270.5 0v9423"></path><path id="Left" stroke-opacity="0.1" d="M.5 0v9423"></path></g></g><g id="BrandIcon--fpx" transform="translate(343 3326)" fill-rule="nonzero"><g id="Group"><path d="M17.5 8.13A703.86 703.86 0 0 0 11.95.7c-.3-.4-.73-.86-1.23-.6-.34.18-.65.72-.68 1.12-.12 1.3-.1 2.63-.12 3.94 0 .15.14.31.24.45l2.33 3.12c.21.3.34.53.37.76-.03.31-.16.47-.37.76l-2.33 3.13c-.1.14-.24.3-.24.45.01 1.32 0 2.64.12 3.95.03.4.34.93.68 1.1.5.27.93-.2 1.23-.59a701.4 701.4 0 0 0 5.53-7.43c.33-.45.5-.74.53-1.37-.03-.46-.2-.92-.53-1.36zM21.63 16.06l3.05.02v-5.36h5.72V7.86h-5.69V5.07h6.2V2.34h-9.28v13.72z" id="Path" fill="var(--paymentLogoColor, #1F2C5C)"></path><path d="M.62 8.13C2.45 5.63 4.3 3.16 6.16.7c.29-.4.72-.86 1.22-.6.34.18.65.72.69 1.12.1 1.3.1 2.63.11 3.94 0 .15-.14.31-.24.45L5.6 8.73c-.21.3-.33.53-.37.76.04.31.16.47.37.76l2.33 3.13c.1.14.24.3.24.45-.01 1.32 0 2.64-.11 3.95-.04.4-.35.93-.69 1.1-.5.27-.93-.2-1.22-.59-1.86-2.46-3.71-4.94-5.54-7.43-.32-.45-.5-.74-.53-1.37.03-.46.2-.92.53-1.36z" id="Path" fill="var(--paymentLogoColor, #1A8ACB)"></path><path d="M33.2 2.2c2.43.1 4.86.03 7.25.32 2.17.26 3.19 1.93 3.06 4.4-.1 2.09-1.41 3.44-3.64 3.66-1.18.12-2.37.13-3.67.2v5.26h-3V2.2zm3.05 2.57v3.37c.98-.05 1.92-.02 2.84-.17.89-.14 1.28-.72 1.26-1.55-.02-.75-.49-1.33-1.33-1.45-.9-.12-1.81-.13-2.77-.2z" id="Shape" fill="var(--paymentLogoColor, #1F2C5C)"></path><path d="M52.94 8.86l4.45-6.5c-1.24 0-2.33-.02-3.43 0-.16.01-.38.2-.48.36-.46.72-.88 1.46-1.3 2.2l-1.26 2.12c-.32-.76-.83-1.44-1.23-2.13-.43-.73-.83-1.47-1.29-2.19-.1-.16-.31-.35-.48-.35-1.1-.03-2.19-.02-3.43-.02l4.45 6.51-5 7.27c1.32 0 2.51.02 3.7-.02.16 0 .32-.27.43-.45l2.69-4.41c.05-.1.16-.19.16-.29l.19.29c.9 1.47 1.78 2.94 2.69 4.4.1.19.28.46.43.46 1.2.04 2.39.02 3.71.02l-5-7.27z" id="Path" fill="var(--paymentLogoColor, #1F2C5C)"></path></g></g></g></g></svg>