<svg width="49" height="16" viewBox="0 0 49 16" fill="none" xmlns="http://www.w3.org/2000/svg" class="PaymentLogo variant-- "><title>Link</title><path d="M25.0362 2.45122c0-.752.6336-1.36321 1.3792-1.36321.7456 0 1.3792.61441 1.3792 1.36321s-.6112 1.3792-1.3792 1.3792-1.3792-.6112-1.3792-1.3792ZM20.9434 1.28h2.4v13.44h-2.4V1.28ZM27.6282 5.12001H25.209V14.72h2.4192V5.12001ZM45.0202 9.59362c1.8208-1.12 3.0592-2.7872 3.5488-4.4768h-2.4192c-.6304 1.6128-2.0768 2.82561-3.6672 3.34081V1.27682h-2.4192V14.7168h2.4192V10.72c1.8464.4608 3.3056 2.0576 3.8048 3.9968h2.4352c-.3712-2.0352-1.7632-3.9392-3.7024-5.12318ZM31.9162 6.19522c.6336-.8416 1.8688-1.33121 2.8704-1.33121 1.8688 0 3.4144 1.36641 3.4176 3.43041v6.42238H35.785V8.82882c0-.848-.3776-1.82721-1.6032-1.82721-1.44 0-2.2688 1.27681-2.2688 2.77121v4.95038h-2.4192V5.12641h2.4224v1.06881Z" fill="#011E0F"></path><path d="M8.95621 16c4.41829 0 7.99999-3.5817 7.99999-8 0-4.41829-3.5817-8-7.99999-8C4.53793 0 .956203 3.58171.956203 8c0 4.4183 3.581727 8 8.000007 8Z" fill="#00D66F"></path><path d="M8.58811 3.20004H6.12092c.48 2.0064 1.88159 3.7216 3.63519 4.8C7.99931 9.07844 6.60092 10.7936 6.12092 12.8h2.46719c.6112-1.856 2.30399-3.46876 4.38399-3.79836v-2.0064c-2.0832-.3264-3.77599-1.9392-4.38399-3.7952Z" fill="#011E0F"></path></svg>